<?xml version="1.0" standalone="no"?>
<!DOCTYPE svg PUBLIC "-//W3C//DTD SVG 20010904//EN"
 "http://www.w3.org/TR/2001/REC-SVG-20010904/DTD/svg10.dtd">
<svg version="1.0" xmlns="http://www.w3.org/2000/svg"
 width="80.000000pt" height="80.000000pt" viewBox="0 0 80.000000 80.000000"
 preserveAspectRatio="xMidYMid meet">
<metadata>
Created by potrace 1.14, written by Peter Selinger 2001-2017
</metadata>
<g transform="translate(0.000000,80.000000) scale(0.100000,-0.100000)"
fill="#000000" stroke="none">
<path d="M370 743 c-1 -39 -29 -97 -97 -199 -95 -142 -113 -180 -120 -250 -26
-279 364 -373 479 -116 34 75 19 197 -38 315 -18 38 -34 48 -34 23 0 -8 -10
-27 -23 -41 l-22 -27 0 79 c0 90 -23 149 -82 208 -43 43 -63 45 -63 8z"/>
</g>
</svg>
